<svg width="237" height="237" viewBox="0 0 237 237" fill="none" xmlns="http://www.w3.org/2000/svg">
<g clip-path="url(#clip0_2110_1671)">
<path fill-rule="evenodd" clip-rule="evenodd" d="M67.7746 0C30.3437 0 0 30.3167 0 67.7143V169.286C0 206.683 30.3437 237 67.7746 237H169.437C206.867 237 237.211 206.683 237.211 169.286V67.7143C237.211 30.3167 206.867 0 169.437 0H67.7746ZM161.491 177.166C153.469 195.735 131.41 207 118.706 207C106.001 207 93.8173 201.993 84.8335 193.082C75.8504 184.17 70.8034 172.084 70.8034 159.481C70.8034 146.878 83.0507 125.881 100.878 117.038C100.878 136.492 105.335 147.987 117.814 160.365C132.082 174.519 142.772 176.282 161.491 177.166ZM160.098 165.904C147.393 165.904 125.335 154.638 117.312 136.07C136.031 135.185 146.721 133.422 160.99 119.269C173.468 106.89 177.925 95.3951 177.925 75.9419C195.753 84.7843 208 105.782 208 118.385C208 130.987 202.953 143.074 193.97 151.985C184.987 160.897 172.803 165.904 160.098 165.904ZM72.744 60.8342C80.7664 42.2652 102.825 31 115.529 31C128.234 31 140.418 36.0064 149.402 44.9179C158.385 53.829 163.432 65.9157 163.432 78.5183C163.432 91.121 151.184 112.119 133.357 120.961C133.357 101.509 128.9 90.0135 116.421 77.6341C102.153 63.4808 91.4629 61.7185 72.744 60.8342ZM118.688 102.873C110.666 84.3044 88.6069 73.0386 75.9019 73.0386C63.1975 73.0386 51.0133 78.0452 42.0302 86.9571C33.0468 95.8682 28 107.955 28 120.558C28 133.16 40.2474 154.158 58.075 163C58.075 143.547 62.5319 132.053 75.0105 119.673C89.2787 105.52 99.9691 103.757 118.688 102.873Z" fill="url(#paint0_linear_2110_1671)"/>
</g>
<defs>
<linearGradient id="paint0_linear_2110_1671" x1="118.606" y1="0" x2="118.606" y2="237" gradientUnits="userSpaceOnUse">
<stop offset="0.155804" stop-color="#603DDC"/>
<stop offset="1" stop-color="#10D5CB"/>
</linearGradient>
<clipPath id="clip0_2110_1671">
<rect width="237" height="237" fill="white"/>
</clipPath>
</defs>
</svg>
